<?xml version="1.0" encoding="utf-8"?>
<!-- Generator: Adobe Illustrator 19.0.0, SVG Export Plug-In . SVG Version: 6.00 Build 0)  -->
<svg version="1.1" id="Layer_1" xmlns="http://www.w3.org/2000/svg" xmlns:xlink="http://www.w3.org/1999/xlink" x="0px" y="0px"
	 viewBox="-250 52 298 298" style="enable-background:new -250 52 298 298;" xml:space="preserve">
<style type="text/css">
	.st0{clip-path:url(#SVGID_2_); fill:#FFFFFF; }
	.st1{clip-path:url(#SVGID_4_); fill:#FFFFFF; }
</style>
<g>
	<defs>
		<path id="SVGID_1_" d="M47.8,161.9C47,116.2,9.9,75.5-35.9,75.5c-26.5,0-49.8,13.9-65.2,34.2c-15.4-20.3-38.7-34.2-65.2-34.2
			c-45.8,0-82.9,40.7-83.6,86.4h-0.1c0,0.3,0.1,0.5,0.1,0.8c0,0.2-0.1,0.4-0.1,0.6c0,1.3,0.3,2.3,0.4,3.5
			C-245.5,283.3-102.2,331-102.2,331S43.2,283.3,47.5,167c0.1-1.3,0.4-2.3,0.4-3.7c0-0.2-0.1-0.4-0.1-0.6c0-0.3,0.1-0.5,0.1-0.8
			H47.8z"/>
	</defs>
	<use xlink:href="#SVGID_1_"  style="overflow:visible;fill-rule:evenodd;clip-rule:evenodd;"/>
	<clipPath id="SVGID_2_">
		<use xlink:href="#SVGID_1_"  style="overflow:visible;"/>
	</clipPath>
	<g class="st0">
		<defs>
			<rect id="SVGID_3_" x="-250" y="70.3" width="297.9" height="270"/>
		</defs>
		<use xlink:href="#SVGID_3_"  style="overflow:visible;"/>
		<clipPath id="SVGID_4_">
			<use xlink:href="#SVGID_3_"  style="overflow:visible;"/>
		</clipPath>
		<rect x="-296.5" y="28.9" class="st1" width="391" height="348.6"/>
	</g>
</g>
</svg>
