<?xml version="1.0" encoding="UTF-8" standalone="no"?>
<svg viewBox="0 0 34 34" version="1.1" xmlns="http://www.w3.org/2000/svg" xmlns:xlink="http://www.w3.org/1999/xlink">
    <!-- Generator: Sketch 45.2 (43514) - http://www.bohemiancoding.com/sketch -->
    <title>Icons / Sign / Aries</title>
    <desc>Created with Sketch.</desc>
    <defs></defs>
    <g id="Page-1" stroke="none" stroke-width="1" fill="none" fill-rule="evenodd">
        <g id="UI-Kit" transform="translate(-158.000000, -3006.000000)" fill="#FFFFFF">
            <g id="Icons-/-Sign-/-Aries" transform="translate(158.000000, 3006.000000)">
                <path d="M16.4946,28.4422 C15.9716,28.4422 15.5316,28.0352 15.4976,27.5052 C15.2916,24.2702 15.4786,21.0612 16.0546,17.9672 C16.8346,13.7792 17.5076,10.1622 20.4356,8.7492 C22.2496,7.8762 24.8916,7.8382 26.4316,9.4632 C28.0456,11.1692 28.0116,14.0862 26.3496,16.4002 C26.0266,16.8482 25.4026,16.9502 24.9546,16.6292 C24.5056,16.3072 24.4026,15.6832 24.7246,15.2342 C25.9616,13.5112 25.7786,11.6832 24.9776,10.8382 C24.0566,9.8632 22.2746,10.0832 21.3056,10.5512 C19.2886,11.5242 18.7286,14.5282 18.0206,18.3332 C17.4746,21.2642 17.2986,24.3082 17.4936,27.3792 C17.5286,27.9302 17.1096,28.4052 16.5586,28.4402 C16.5376,28.4422 16.5156,28.4422 16.4946,28.4422" id="Fill-1"></path>
                <path d="M16.5327,28.4422 C16.5117,28.4422 16.4897,28.4422 16.4687,28.4402 C15.9177,28.4052 15.4987,27.9302 15.5337,27.3792 C15.7297,24.3022 15.5527,21.2592 15.0067,18.3332 C14.2987,14.5262 13.7387,11.5232 11.7217,10.5512 C10.7527,10.0832 8.9707,9.8632 8.0507,10.8382 C7.2497,11.6832 7.0657,13.5112 8.3027,15.2342 C8.6247,15.6832 8.5217,16.3072 8.0727,16.6292 C7.6227,16.9502 6.9987,16.8492 6.6777,16.4002 C5.0157,14.0862 4.9827,11.1682 6.5977,9.4632 C8.1347,7.8382 10.7737,7.8742 12.5917,8.7492 C15.5197,10.1622 16.1927,13.7762 16.9717,17.9632 C17.5487,21.0552 17.7357,24.2642 17.5297,27.5052 C17.4957,28.0352 17.0557,28.4422 16.5327,28.4422" id="Fill-3"></path>
                <path d="M16.8403,2.1771 C8.9363,2.1771 2.5053,8.6081 2.5053,16.5121 C2.5053,24.4171 8.9363,30.8471 16.8403,30.8471 C24.7443,30.8471 31.1763,24.4171 31.1763,16.5121 C31.1763,8.6081 24.7443,2.1771 16.8403,2.1771 M16.8403,33.0241 C7.7363,33.0241 0.3283,25.6171 0.3283,16.5121 C0.3283,7.4071 7.7363,0.0001 16.8403,0.0001 C25.9443,0.0001 33.3523,7.4071 33.3523,16.5121 C33.3523,25.6171 25.9443,33.0241 16.8403,33.0241" id="Fill-5"></path>
            </g>
        </g>
    </g>
</svg>
