<?xml version="1.0" encoding="UTF-8" standalone="no"?>
<svg viewBox="0 0 34 34" version="1.1" xmlns="http://www.w3.org/2000/svg" xmlns:xlink="http://www.w3.org/1999/xlink">
    <!-- Generator: Sketch 45.2 (43514) - http://www.bohemiancoding.com/sketch -->
    <title>Icons / Sign / Leo</title>
    <desc>Created with Sketch.</desc>
    <defs></defs>
    <g id="Page-1" stroke="none" stroke-width="1" fill="none" fill-rule="evenodd">
        <g id="UI-Kit" transform="translate(-360.000000, -3006.000000)" fill="#FFFFFF">
            <g id="Icons-/-Sign-/-Leo" transform="translate(360.000000, 3006.000000)">
                <path d="M16.8403,2.3514 C8.8873,2.3514 2.4163,8.8214 2.4163,16.7744 C2.4163,24.7274 8.8873,31.1984 16.8403,31.1984 C24.7933,31.1984 31.2643,24.7274 31.2643,16.7744 C31.2643,8.8214 24.7933,2.3514 16.8403,2.3514 M16.8403,33.1984 C7.7843,33.1984 0.4163,25.8304 0.4163,16.7744 C0.4163,7.7194 7.7843,0.3514 16.8403,0.3514 C25.8963,0.3514 33.2643,7.7194 33.2643,16.7744 C33.2643,25.8304 25.8963,33.1984 16.8403,33.1984" id="Fill-33"></path>
                <path d="M11.6655,15.1805 C10.2415,15.1805 9.0825,16.3395 9.0825,17.7635 C9.0825,19.1885 10.2415,20.3475 11.6655,20.3475 C13.0905,20.3475 14.2495,19.1885 14.2495,17.7635 C14.2495,16.3395 13.0905,15.1805 11.6655,15.1805 M11.6655,22.3475 C9.1385,22.3475 7.0825,20.2915 7.0825,17.7635 C7.0825,15.2365 9.1385,13.1805 11.6655,13.1805 C14.1925,13.1805 16.2495,15.2365 16.2495,17.7635 C16.2495,20.2915 14.1925,22.3475 11.6655,22.3475" id="Fill-35"></path>
                <path d="M20.8335,26.4169 C20.2515,26.4169 19.6995,26.2939 19.2095,26.0419 C17.7215,25.2789 16.9515,23.4429 17.0405,20.8729 C17.1415,18.1189 18.5675,16.4559 19.8265,14.9889 C20.9455,13.6849 21.8295,12.6539 21.7905,11.0519 C21.7555,9.5369 20.8775,7.6409 19.2695,6.9459 C17.9315,6.3679 16.3415,6.7949 15.3595,7.4749 C13.5325,8.7419 12.8665,11.4609 13.7395,14.0869 C13.9135,14.6109 13.6305,15.1779 13.1055,15.3519 C12.5835,15.5279 12.0155,15.2419 11.8415,14.7179 C10.6905,11.2559 11.6685,7.6009 14.2205,5.8309 C15.5525,4.9099 17.8815,4.1669 20.0625,5.1099 C22.5535,6.1859 23.7405,8.9189 23.7905,11.0039 C23.8475,13.3739 22.5745,14.8569 21.3445,16.2909 C20.1975,17.6269 19.1145,18.8899 19.0395,20.9389 C18.9805,22.6439 19.3855,23.8849 20.1215,24.2629 C20.9155,24.6689 22.2535,24.2619 23.3825,23.2749 C23.7965,22.9119 24.4275,22.9529 24.7935,23.3689 C25.1565,23.7849 25.1145,24.4169 24.6985,24.7799 C23.4795,25.8479 22.0875,26.4169 20.8335,26.4169" id="Fill-37"></path>
            </g>
        </g>
    </g>
</svg>
