<?xml version="1.0" encoding="UTF-8" standalone="no"?>
<svg viewBox="0 0 33 33" version="1.1" xmlns="http://www.w3.org/2000/svg" xmlns:xlink="http://www.w3.org/1999/xlink">
    <!-- Generator: Sketch 45.2 (43514) - http://www.bohemiancoding.com/sketch -->
    <title>Icons / Sign / Pieces</title>
    <desc>Created with Sketch.</desc>
    <defs></defs>
    <g id="Page-1" stroke="none" stroke-width="1" fill="none" fill-rule="evenodd">
        <g id="UI-Kit" transform="translate(-458.000000, -3005.000000)" fill="#FFFFFF">
            <g id="Icons-/-Sign-/-Pieces" transform="translate(457.000000, 3005.000000)">
                <path d="M17.4224,2.1523 C9.4694,2.1523 2.9984,8.6233 2.9984,16.5763 C2.9984,24.5293 9.4694,31.0003 17.4224,31.0003 C25.3754,31.0003 31.8464,24.5293 31.8464,16.5763 C31.8464,8.6233 25.3754,2.1523 17.4224,2.1523 M17.4224,33.0003 C8.3664,33.0003 0.9984,25.6323 0.9984,16.5763 C0.9984,7.5203 8.3664,0.1523 17.4224,0.1523 C26.4784,0.1523 33.8464,7.5203 33.8464,16.5763 C33.8464,25.6323 26.4784,33.0003 17.4224,33.0003" id="Fill-77"></path>
                <path d="M23.4976,18.2524 L10.6636,18.2524 C10.1106,18.2524 9.6636,17.8044 9.6636,17.2524 C9.6636,16.7004 10.1106,16.2524 10.6636,16.2524 L23.4976,16.2524 C24.0506,16.2524 24.4976,16.7004 24.4976,17.2524 C24.4976,17.8044 24.0506,18.2524 23.4976,18.2524" id="Fill-80"></path>
                <path d="M10.4771,25.3774 C10.1861,25.3774 9.8981,25.2514 9.7001,25.0084 C9.3521,24.5794 9.4161,23.9494 9.8451,23.6014 C10.3761,23.1694 13.0321,20.8214 13.1651,16.9684 C13.3121,12.6704 10.2001,10.0044 9.8441,9.7144 C9.4161,9.3654 9.3521,8.7354 9.7011,8.3084 C10.0491,7.8794 10.6791,7.8154 11.1081,8.1654 C11.8161,8.7424 15.3401,11.8854 15.1631,17.0374 C15.0051,21.6374 12.0181,24.4124 11.1071,25.1534 C10.9211,25.3044 10.6991,25.3774 10.4771,25.3774" id="Fill-82"></path>
                <path d="M23.4976,25.3774 C23.2276,25.3774 22.9596,25.2694 22.7626,25.0554 C21.6216,23.8184 19.6796,21.1674 19.4766,17.3044 C19.2276,12.5084 21.9276,9.1724 22.7606,8.2644 C23.1346,7.8554 23.7676,7.8294 24.1736,8.2034 C24.5806,8.5764 24.6076,9.2094 24.2346,9.6154 C23.5346,10.3794 21.2666,13.1824 21.4756,17.2004 C21.6496,20.5564 23.4616,22.8634 24.2326,23.6994 C24.6066,24.1054 24.5816,24.7384 24.1756,25.1124 C23.9826,25.2904 23.7396,25.3774 23.4976,25.3774" id="Fill-84"></path>
            </g>
        </g>
    </g>
</svg>
