<?xml version="1.0" encoding="UTF-8" standalone="no"?>
<svg viewBox="0 0 33 34" version="1.1" xmlns="http://www.w3.org/2000/svg" xmlns:xlink="http://www.w3.org/1999/xlink">
    <!-- Generator: Sketch 45.2 (43514) - http://www.bohemiancoding.com/sketch -->
    <title>Icons / Sign / Saggitarius</title>
    <desc>Created with Sketch.</desc>
    <defs></defs>
    <g id="Page-1" stroke="none" stroke-width="1" fill="none" fill-rule="evenodd">
        <g id="UI-Kit" transform="translate(-508.000000, -3004.000000)" fill="#FFFFFF">
            <g id="Icons-/-Sign-/-Saggitarius" transform="translate(508.000000, 3004.000000)">
                <path d="M16.4233,2.7406 C8.4703,2.7406 2.0003,9.2106 2.0003,17.1636 C2.0003,25.1166 8.4703,31.5876 16.4233,31.5876 C24.3763,31.5876 30.8473,25.1166 30.8473,17.1636 C30.8473,9.2106 24.3763,2.7406 16.4233,2.7406 M16.4233,33.5876 C7.3673,33.5876 0.0003,26.2196 0.0003,17.1636 C0.0003,8.1086 7.3673,0.7406 16.4233,0.7406 C25.4793,0.7406 32.8473,8.1086 32.8473,17.1636 C32.8473,26.2196 25.4793,33.5876 16.4233,33.5876" id="Fill-55"></path>
                <path d="M8.8042,25.2045 C8.5342,25.2045 8.2652,25.0955 8.0682,24.8815 C7.6942,24.4755 7.7212,23.8425 8.1272,23.4685 L22.6272,10.1345 C23.0342,9.7625 23.6662,9.7875 24.0402,10.1945 C24.4142,10.6005 24.3872,11.2335 23.9812,11.6075 L9.4812,24.9405 C9.2882,25.1175 9.0462,25.2045 8.8042,25.2045" id="Fill-57"></path>
                <path d="M23.3042,18.1639 C22.7512,18.1639 22.3042,17.7159 22.3042,17.1639 L22.3042,10.8709 C22.3042,10.3189 22.7512,9.8709 23.3042,9.8709 C23.8572,9.8709 24.3042,10.3189 24.3042,10.8709 L24.3042,17.1639 C24.3042,17.7159 23.8572,18.1639 23.3042,18.1639" id="Fill-59"></path>
                <path d="M16.8667,11.892 C16.3157,11.892 15.8687,11.446 15.8667,10.895 C15.8647,10.343 16.3107,9.894 16.8637,9.892 L23.3017,9.871 L23.3037,9.871 C23.8547,9.871 24.3027,10.316 24.3037,10.868 C24.3057,11.42 23.8597,11.869 23.3067,11.871 L16.8697,11.892 L16.8667,11.892 Z" id="Fill-61"></path>
                <path d="M16.8667,22.9706 C16.6017,22.9706 16.3387,22.8666 16.1417,22.6596 L10.7707,17.0116 C10.3897,16.6116 10.4067,15.9776 10.8057,15.5976 C11.2087,15.2166 11.8397,15.2316 12.2207,15.6336 L17.5917,21.2816 C17.9717,21.6816 17.9557,22.3146 17.5557,22.6956 C17.3617,22.8796 17.1147,22.9706 16.8667,22.9706" id="Fill-63"></path>
            </g>
        </g>
    </g>
</svg>
