<?xml version="1.0" encoding="UTF-8" standalone="no"?>
<svg viewBox="0 0 33 34" version="1.1" xmlns="http://www.w3.org/2000/svg" xmlns:xlink="http://www.w3.org/1999/xlink">
    <!-- Generator: Sketch 45.2 (43514) - http://www.bohemiancoding.com/sketch -->
    <title>Icons / Sign / Aquarius</title>
    <desc>Created with Sketch.</desc>
    <defs></defs>
    <g id="Page-1" stroke="none" stroke-width="1" fill="none" fill-rule="evenodd">
        <g id="UI-Kit" transform="translate(-113.000000, -3004.000000)" fill="#5579EE">
            <g id="Icons-/-Sign-/-Aquarius" transform="translate(112.000000, 3004.000000)">
                <path d="M17.4224,2.7406 C9.4694,2.7406 2.9984,9.2106 2.9984,17.1636 C2.9984,25.1166 9.4694,31.5876 17.4224,31.5876 C25.3754,31.5876 31.8454,25.1166 31.8454,17.1636 C31.8454,9.2106 25.3754,2.7406 17.4224,2.7406 M17.4224,33.5876 C8.3664,33.5876 0.9984,26.2196 0.9984,17.1636 C0.9984,8.1086 8.3664,0.7406 17.4224,0.7406 C26.4784,0.7406 33.8454,8.1086 33.8454,17.1636 C33.8454,26.2196 26.4784,33.5876 17.4224,33.5876" id="Fill-71"></path>
                <path d="M19.0972,16.0248 C18.9742,16.0248 18.8512,16.0028 18.7332,15.9558 C18.3912,15.8228 18.1512,15.5128 18.1052,15.1488 L17.8302,12.9568 L14.6522,15.5878 C14.3732,15.8178 13.9942,15.8798 13.6552,15.7498 C13.3182,15.6208 13.0762,15.3188 13.0252,14.9608 L12.7012,12.7398 L9.4982,15.4918 C9.0812,15.8518 8.4502,15.8048 8.0882,15.3848 C7.7292,14.9658 7.7772,14.3348 8.1962,13.9748 L12.7792,10.0378 C13.0552,9.7988 13.4382,9.7318 13.7812,9.8588 C14.1222,9.9868 14.3682,10.2918 14.4192,10.6518 L14.7472,12.9118 L17.9592,10.2538 C18.2422,10.0218 18.6252,9.9598 18.9662,10.0948 C19.3052,10.2298 19.5442,10.5388 19.5892,10.9008 L19.8612,13.0738 L22.9522,10.4688 C23.2382,10.2278 23.6342,10.1658 23.9772,10.3088 C24.3222,10.4498 24.5592,10.7718 24.5932,11.1428 L24.9262,14.8088 C24.9762,15.3588 24.5712,15.8458 24.0212,15.8958 C23.4642,15.9408 22.9852,15.5408 22.9342,14.9908 L22.7752,13.2338 L19.7422,15.7898 C19.5582,15.9438 19.3282,16.0248 19.0972,16.0248" id="Fill-73"></path>
                <path d="M19.0972,24.788 C18.9742,24.788 18.8512,24.766 18.7332,24.719 C18.3912,24.586 18.1512,24.276 18.1052,23.912 L17.8302,21.72 L14.6522,24.351 C14.3732,24.582 13.9942,24.643 13.6552,24.513 C13.3182,24.384 13.0762,24.082 13.0252,23.724 L12.7012,21.503 L9.4982,24.255 C9.0812,24.615 8.4502,24.568 8.0882,24.148 C7.7292,23.729 7.7772,23.098 8.1962,22.738 L12.7792,18.801 C13.0552,18.562 13.4382,18.496 13.7812,18.622 C14.1222,18.75 14.3682,19.055 14.4192,19.415 L14.7472,21.675 L17.9592,19.017 C18.2422,18.785 18.6252,18.724 18.9662,18.858 C19.3052,18.993 19.5442,19.302 19.5892,19.664 L19.8612,21.837 L22.9522,19.232 C23.2382,18.991 23.6342,18.929 23.9772,19.072 C24.3222,19.213 24.5592,19.535 24.5932,19.906 L24.9262,23.572 C24.9762,24.122 24.5712,24.609 24.0212,24.659 C23.4642,24.708 22.9852,24.304 22.9342,23.754 L22.7752,21.997 L19.7422,24.553 C19.5582,24.707 19.3282,24.788 19.0972,24.788" id="Fill-75"></path>
            </g>
        </g>
    </g>
</svg>
