<?xml version="1.0" encoding="UTF-8" standalone="no"?>
<svg viewBox="0 0 34 34" version="1.1" xmlns="http://www.w3.org/2000/svg" xmlns:xlink="http://www.w3.org/1999/xlink">
    <!-- Generator: Sketch 45.2 (43514) - http://www.bohemiancoding.com/sketch -->
    <title>Icons / Sign / Cancer</title>
    <desc>Created with Sketch.</desc>
    <defs></defs>
    <g id="Page-1" stroke="none" stroke-width="1" fill="none" fill-rule="evenodd">
        <g id="UI-Kit" transform="translate(-207.000000, -3005.000000)" fill="#5579EE">
            <g id="Icons-/-Sign-/-Cancer" transform="translate(207.000000, 3005.000000)">
                <g id="Group-4">
                    <path d="M16.5396,2.9896 C8.6356,2.9896 2.2036,9.4206 2.2036,17.3246 C2.2036,25.2296 8.6356,31.6596 16.5396,31.6596 C24.4436,31.6596 30.8756,25.2296 30.8756,17.3246 C30.8756,9.4206 24.4436,2.9896 16.5396,2.9896 M16.5396,33.8366 C7.4356,33.8366 0.0276,26.4296 0.0276,17.3246 C0.0276,8.2196 7.4356,0.8126 16.5396,0.8126 C25.6436,0.8126 33.0516,8.2196 33.0516,17.3246 C33.0516,26.4296 25.6436,33.8366 16.5396,33.8366" id="Fill-23"></path>
                    <path d="M11.5894,12.4974 C10.3714,12.4974 9.3814,13.4504 9.3814,14.6224 C9.3814,15.7944 10.3714,16.7474 11.5894,16.7474 C12.8074,16.7474 13.7984,15.7944 13.7984,14.6224 C13.7984,13.4504 12.8074,12.4974 11.5894,12.4974 M11.5894,18.7474 C9.2694,18.7474 7.3814,16.8964 7.3814,14.6224 C7.3814,12.3484 9.2694,10.4974 11.5894,10.4974 C13.9104,10.4974 15.7984,12.3484 15.7984,14.6224 C15.7984,16.8964 13.9104,18.7474 11.5894,18.7474" id="Fill-25"></path>
                    <path d="M21.9702,17.8475 C20.7522,17.8475 19.7622,18.8005 19.7622,19.9725 C19.7622,21.1445 20.7522,22.0975 21.9702,22.0975 C23.1882,22.0975 24.1792,21.1445 24.1792,19.9725 C24.1792,18.8005 23.1882,17.8475 21.9702,17.8475 M21.9702,24.0975 C19.6502,24.0975 17.7622,22.2465 17.7622,19.9725 C17.7622,17.6985 19.6502,15.8475 21.9702,15.8475 C24.2912,15.8475 26.1792,17.6985 26.1792,19.9725 C26.1792,22.2465 24.2912,24.0975 21.9702,24.0975" id="Fill-27"></path>
                    <path d="M17.0054,25.5121 C16.4694,25.5121 15.9134,25.4791 15.3384,25.4061 C12.1644,25.0011 9.8644,23.5671 8.4944,22.4351 C8.0684,22.0831 8.0084,21.4531 8.3604,21.0271 C8.7114,20.6011 9.3404,20.5401 9.7684,20.8931 C10.9354,21.8571 12.8924,23.0781 15.5904,23.4221 C18.7624,23.8271 21.2714,22.7791 22.4864,22.1181 C22.9744,21.8571 23.5794,22.0341 23.8434,22.5201 C24.1074,23.0061 23.9274,23.6131 23.4424,23.8761 C22.2344,24.5321 19.9384,25.5121 17.0054,25.5121" id="Fill-29"></path>
                    <path d="M24.3804,13.9139 C24.1564,13.9139 23.9324,13.8389 23.7464,13.6859 C22.5644,12.7149 20.5814,11.4869 17.8444,11.1569 C14.7094,10.7819 12.2254,11.8109 11.0244,12.4599 C10.5364,12.7229 9.9304,12.5409 9.6684,12.0559 C9.4054,11.5699 9.5874,10.9629 10.0724,10.7009 C11.4834,9.9389 14.4014,8.7249 18.0844,9.1709 C21.3004,9.5589 23.6294,10.9999 25.0164,12.1419 C25.4424,12.4929 25.5044,13.1219 25.1534,13.5489 C24.9554,13.7889 24.6694,13.9139 24.3804,13.9139" id="Fill-31"></path>
                </g>
            </g>
        </g>
    </g>
</svg>
