<?xml version="1.0" encoding="UTF-8" standalone="no"?>
<svg viewBox="0 0 34 34" version="1.1" xmlns="http://www.w3.org/2000/svg" xmlns:xlink="http://www.w3.org/1999/xlink">
    <!-- Generator: Sketch 45.2 (43514) - http://www.bohemiancoding.com/sketch -->
    <title>Icons / Sign / Capricorn</title>
    <desc>Created with Sketch.</desc>
    <defs></defs>
    <g id="Page-1" stroke="none" stroke-width="1" fill="none" fill-rule="evenodd">
        <g id="UI-Kit" transform="translate(-260.000000, -3006.000000)" fill="#5579EE">
            <g id="Icons-/-Sign-/-Capricorn" transform="translate(260.000000, 3006.000000)">
                <path d="M16.8589,2.4603 C8.9059,2.4603 2.4349,8.9313 2.4349,16.8843 C2.4349,24.8373 8.9059,31.3073 16.8589,31.3073 C24.8119,31.3073 31.2829,24.8373 31.2829,16.8843 C31.2829,8.9313 24.8119,2.4603 16.8589,2.4603 M16.8589,33.3073 C7.8029,33.3073 0.4349,25.9393 0.4349,16.8843 C0.4349,7.8283 7.8029,0.4603 16.8589,0.4603 C25.9149,0.4603 33.2829,7.8283 33.2829,16.8843 C33.2829,25.9393 25.9149,33.3073 16.8589,33.3073" id="Fill-65"></path>
                <path d="M12.6616,26.1659 L12.6466,26.1659 C12.0946,26.1579 11.6536,25.7029 11.6616,25.1509 L11.8496,12.7129 C11.8496,12.6709 11.8526,12.6279 11.8586,12.5859 C11.8906,12.3699 11.9526,11.6129 11.4436,10.9789 C11.1066,10.5589 10.6696,10.3809 10.4376,10.3119 C9.9086,10.1539 9.6076,9.5969 9.7656,9.0669 C9.9236,8.5379 10.4786,8.2339 11.0106,8.3949 C11.5646,8.5609 12.3616,8.9269 13.0046,9.7279 C13.9496,10.9059 13.9206,12.2249 13.8486,12.8019 L13.6616,25.1809 C13.6526,25.7279 13.2076,26.1659 12.6616,26.1659" id="Fill-67"></path>
                <path d="M20.8403,20.6136 C21.1483,20.8866 21.5093,21.0996 21.9273,21.1866 C22.9253,21.3956 24.3003,20.9466 24.7493,19.9446 C24.9443,19.5086 25.0273,18.8306 24.6763,18.2386 C24.1763,17.3946 23.1143,17.3546 23.0693,17.3526 C22.4653,17.3246 21.9023,17.6046 21.4003,18.1536 C21.0063,18.5826 20.9013,19.0876 20.8303,19.4226 C20.7423,19.8346 20.7713,20.0516 20.8093,20.3506 C20.8193,20.4326 20.8313,20.5206 20.8403,20.6136 M16.4733,25.4786 C15.9483,25.4786 15.5093,25.0706 15.4763,24.5406 C15.4423,23.9886 15.8613,23.5146 16.4123,23.4806 C16.9583,23.4466 17.6783,23.3206 18.0093,22.9116 C18.5453,22.2506 18.7733,21.6186 18.8103,21.4486 C18.8163,21.4256 18.8203,21.4016 18.8243,21.3796 C18.0043,20.3366 17.6193,19.1766 17.5153,18.8236 C17.0423,17.2316 17.2653,15.9276 17.4613,14.7786 C17.6603,13.6066 17.8053,12.7606 17.2373,11.7996 C17.0623,11.5006 16.8673,11.2016 16.6073,11.1186 C16.0303,10.9346 14.8083,11.6346 13.6743,13.2926 C13.3633,13.7486 12.7413,13.8656 12.2843,13.5536 C11.8283,13.2416 11.7123,12.6196 12.0243,12.1636 C13.6183,9.8316 15.6053,8.6996 17.2163,9.2136 C18.2253,9.5356 18.7223,10.3786 18.9603,10.7826 C19.9003,12.3746 19.6523,13.8306 19.4323,15.1146 C19.2863,15.9716 19.1473,16.7896 19.3043,17.7046 C19.4523,17.4096 19.6523,17.1006 19.9243,16.8036 C21.0623,15.5616 22.2783,15.3276 23.1283,15.3536 C23.4953,15.3646 25.3803,15.5056 26.3973,17.2176 C27.1383,18.4676 26.9743,19.8686 26.5743,20.7616 C25.6933,22.7286 23.3133,23.5146 21.5213,23.1446 C21.1293,23.0636 20.7723,22.9316 20.4463,22.7626 C20.2453,23.1946 19.9533,23.6886 19.5643,24.1706 C18.9313,24.9516 17.9123,25.3906 16.5353,25.4766 C16.5153,25.4776 16.4933,25.4786 16.4733,25.4786" id="Fill-69"></path>
            </g>
        </g>
    </g>
</svg>
