<?xml version="1.0" encoding="UTF-8" standalone="no"?>
<svg viewBox="0 0 34 34" version="1.1" xmlns="http://www.w3.org/2000/svg" xmlns:xlink="http://www.w3.org/1999/xlink">
    <!-- Generator: Sketch 45.2 (43514) - http://www.bohemiancoding.com/sketch -->
    <title>Icons / Sign / Libra</title>
    <desc>Created with Sketch.</desc>
    <defs></defs>
    <g id="Page-1" stroke="none" stroke-width="1" fill="none" fill-rule="evenodd">
        <g id="UI-Kit" transform="translate(-408.000000, -3005.000000)" fill="#5579EE">
            <g id="Icons-/-Sign-/-Libra" transform="translate(408.000000, 3005.000000)">
                <path d="M16.9302,2.2255 C8.9772,2.2255 2.5062,8.6965 2.5062,16.6495 C2.5062,24.6025 8.9772,31.0725 16.9302,31.0725 C24.8832,31.0725 31.3542,24.6025 31.3542,16.6495 C31.3542,8.6965 24.8832,2.2255 16.9302,2.2255 M16.9302,33.0725 C7.8742,33.0725 0.5062,25.7045 0.5062,16.6495 C0.5062,7.5935 7.8742,0.2255 16.9302,0.2255 C25.9862,0.2255 33.3542,7.5935 33.3542,16.6495 C33.3542,25.7045 25.9862,33.0725 16.9302,33.0725" id="Fill-49"></path>
                <path d="M24.4224,21.6996 L8.4224,21.6996 C7.8694,21.6996 7.4224,21.2516 7.4224,20.6996 C7.4224,20.1476 7.8694,19.6996 8.4224,19.6996 L24.4224,19.6996 C24.9754,19.6996 25.4224,20.1476 25.4224,20.6996 C25.4224,21.2516 24.9754,21.6996 24.4224,21.6996" id="Fill-51"></path>
                <path d="M19.0064,16.7831 C18.5964,16.7831 18.2274,16.5321 18.0754,16.1501 C17.9254,15.7681 18.0244,15.3331 18.3234,15.0531 C19.1844,14.2471 19.5054,13.0231 19.1414,11.9341 C18.8224,10.9831 17.9244,10.0001 16.6324,9.9491 C16.6004,9.9481 16.5674,9.9471 16.5334,9.9471 C15.2894,9.9471 14.3314,10.8871 13.9264,11.8411 C13.4644,12.9281 13.6624,14.1951 14.4454,15.1491 C14.6914,15.4481 14.7414,15.8611 14.5764,16.2111 C14.4104,16.5601 14.0594,16.7831 13.6724,16.7831 L8.4224,16.7831 C7.8694,16.7831 7.4224,16.3351 7.4224,15.7831 C7.4224,15.2311 7.8694,14.7831 8.4224,14.7831 L11.9774,14.7831 C11.5534,13.5781 11.5764,12.2551 12.0864,11.0581 C12.7524,9.4911 14.3764,7.9471 16.5314,7.9471 C16.5914,7.9471 16.6514,7.9481 16.7124,7.9501 C18.6554,8.0281 20.3944,9.3731 21.0374,11.3001 C21.4234,12.4511 21.3564,13.6901 20.8964,14.7831 L24.4224,14.7831 C24.9754,14.7831 25.4224,15.2311 25.4224,15.7831 C25.4224,16.3351 24.9754,16.7831 24.4224,16.7831 L19.0064,16.7831 Z" id="Fill-53"></path>
            </g>
        </g>
    </g>
</svg>
