<?xml version="1.0" encoding="UTF-8" standalone="no"?>
<svg viewBox="0 0 33 33" version="1.1" xmlns="http://www.w3.org/2000/svg" xmlns:xlink="http://www.w3.org/1999/xlink">
    <!-- Generator: Sketch 45.2 (43514) - http://www.bohemiancoding.com/sketch -->
    <title>Icons / Sign / Scropio</title>
    <desc>Created with Sketch.</desc>
    <defs></defs>
    <g id="Page-1" stroke="none" stroke-width="1" fill="none" fill-rule="evenodd">
        <g id="UI-Kit" transform="translate(-555.000000, -3003.000000)" fill="#5579EE">
            <g id="Icons-/-Sign-/-Scropio" transform="translate(555.000000, 3003.000000)">
                <path d="M23.9077,25.535 C23.4527,25.535 23.0417,25.223 22.9337,24.76 L22.1837,21.51 C22.0597,20.972 22.3957,20.435 22.9337,20.31 C23.4707,20.188 24.0087,20.522 24.1337,21.06 L24.8837,24.31 C25.0077,24.848 24.6717,25.385 24.1337,25.51 C24.0577,25.527 23.9817,25.535 23.9077,25.535" id="Fill-86"></path>
                <path d="M16.5728,2.0878 C8.6198,2.0878 2.1488,8.5578 2.1488,16.5108 C2.1488,24.4638 8.6198,30.9348 16.5728,30.9348 C24.5258,30.9348 30.9968,24.4638 30.9968,16.5108 C30.9968,8.5578 24.5258,2.0878 16.5728,2.0878 M16.5728,32.9348 C7.5168,32.9348 0.1488,25.5668 0.1488,16.5108 C0.1488,7.4558 7.5168,0.0878 16.5728,0.0878 C25.6288,0.0878 32.9968,7.4558 32.9968,16.5108 C32.9968,25.5668 25.6288,32.9348 16.5728,32.9348" id="Fill-88"></path>
                <path d="M20.8257,26.869 C20.4377,26.869 20.0697,26.643 19.9067,26.265 C19.6877,25.759 19.9207,25.17 20.4277,24.951 L21.6557,24.42 L19.2537,23.074 C18.9387,22.898 18.7447,22.568 18.7417,22.208 L18.6587,10.289 C18.5877,9.814 18.2867,9.413 17.9167,9.304 C17.4297,9.159 16.7217,9.507 16.4847,10.236 C16.3157,10.761 15.7547,11.052 15.2247,10.879 C14.6997,10.709 14.4127,10.145 14.5827,9.62 C15.1357,7.916 16.8847,6.914 18.4827,7.386 C19.6457,7.729 20.4977,8.795 20.6517,10.102 C20.6557,10.139 20.6587,10.176 20.6587,10.213 L20.7377,21.613 L24.3967,23.662 C24.7287,23.848 24.9277,24.206 24.9077,24.586 C24.8877,24.966 24.6547,25.302 24.3047,25.453 L21.2217,26.786 C21.0927,26.842 20.9577,26.869 20.8257,26.869" id="Fill-90"></path>
                <path d="M15.4087,24.0946 C14.8557,24.0946 14.4087,23.6466 14.4087,23.0946 L14.4087,10.3316 C14.2677,9.7756 13.9167,9.3286 13.5337,9.2296 C13.2767,9.1626 12.9447,9.2386 12.6437,9.4286 C12.1957,9.7126 11.8757,10.2056 11.7657,10.7816 C11.6637,11.3236 11.1377,11.6806 10.5967,11.5766 C10.0547,11.4736 9.6977,10.9496 9.8017,10.4076 C10.0127,9.2916 10.6597,8.3186 11.5727,7.7396 C12.3447,7.2496 13.2407,7.0876 14.0337,7.2926 C15.1827,7.5906 16.1067,8.6596 16.3877,10.0166 C16.4017,10.0836 16.4087,10.1516 16.4087,10.2196 L16.4087,23.0946 C16.4087,23.6466 15.9617,24.0946 15.4087,24.0946" id="Fill-92"></path>
                <path d="M10.4497,23.9281 L10.4287,23.9281 C9.8767,23.9161 9.4377,23.4591 9.4497,22.9071 L9.6997,10.8241 C9.7067,10.6401 9.7017,9.7581 9.0417,9.1811 C8.7207,8.9001 8.3577,8.7891 8.1107,8.7461 C7.5667,8.6501 7.2037,8.1321 7.2987,7.5881 C7.3947,7.0441 7.9127,6.6781 8.4567,6.7761 C9.1727,6.9021 9.8297,7.2131 10.3577,7.6761 C11.6647,8.8171 11.7147,10.4161 11.6987,10.8781 L11.4497,22.9491 C11.4377,23.4941 10.9927,23.9281 10.4497,23.9281" id="Fill-94"></path>
            </g>
        </g>
    </g>
</svg>
