<?xml version="1.0" encoding="UTF-8" standalone="no"?>
<svg viewBox="0 0 34 34" version="1.1" xmlns="http://www.w3.org/2000/svg" xmlns:xlink="http://www.w3.org/1999/xlink">
    <!-- Generator: Sketch 45.2 (43514) - http://www.bohemiancoding.com/sketch -->
    <title>Icons / Sign / Taurus</title>
    <desc>Created with Sketch.</desc>
    <defs></defs>
    <g id="Page-1" stroke="none" stroke-width="1" fill="none" fill-rule="evenodd">
        <g id="UI-Kit" transform="translate(-607.000000, -3002.000000)" fill="#5579EE">
            <g id="Icons-/-Sign-/-Taurus" transform="translate(607.000000, 3002.000000)">
                <path d="M16.646,2.4759 C8.742,2.4759 2.31,8.9069 2.31,16.8109 C2.31,24.7159 8.742,31.1459 16.646,31.1459 C24.55,31.1459 30.982,24.7159 30.982,16.8109 C30.982,8.9069 24.55,2.4759 16.646,2.4759 M16.646,33.3229 C7.542,33.3229 0.134,25.9159 0.134,16.8109 C0.134,7.7059 7.542,0.2989 16.646,0.2989 C25.75,0.2989 33.158,7.7059 33.158,16.8109 C33.158,25.9159 25.75,33.3229 16.646,33.3229" id="Fill-7"></path>
                <path d="M16.646,15.5126 C14.543,15.5126 12.833,17.2226 12.833,19.3256 C12.833,21.4276 14.543,23.1376 16.646,23.1376 C18.749,23.1376 20.459,21.4276 20.459,19.3256 C20.459,17.2226 18.749,15.5126 16.646,15.5126 M16.646,25.1376 C13.441,25.1376 10.834,22.5306 10.834,19.3256 C10.834,16.1196 13.441,13.5126 16.646,13.5126 C19.851,13.5126 22.458,16.1196 22.458,19.3256 C22.458,22.5306 19.851,25.1376 16.646,25.1376" id="Fill-9"></path>
                <path d="M17.0151,15.1381 C13.7911,15.1381 11.0311,12.7371 10.5791,9.5271 C10.5021,8.9801 10.8831,8.4741 11.4301,8.3971 C11.9901,8.3161 12.4831,8.7011 12.5601,9.2481 C12.8721,11.4731 14.7841,13.1381 17.0151,13.1381 L17.0601,13.1381 C19.2641,13.1151 21.1601,11.4431 21.4681,9.2481 C21.5441,8.7021 22.0361,8.3181 22.5981,8.3971 C23.1451,8.4741 23.5261,8.9801 23.4491,9.5271 C23.0031,12.6931 20.2651,15.1051 17.0791,15.1381 L17.0151,15.1381" id="Fill-11"></path>
            </g>
        </g>
    </g>
</svg>
