<?xml version="1.0" encoding="UTF-8" standalone="no"?>
<svg viewBox="0 0 34 34" version="1.1" xmlns="http://www.w3.org/2000/svg" xmlns:xlink="http://www.w3.org/1999/xlink">
    <!-- Generator: Sketch 45.2 (43514) - http://www.bohemiancoding.com/sketch -->
    <title>Icons / Sign / Virgo</title>
    <desc>Created with Sketch.</desc>
    <defs></defs>
    <g id="Page-1" stroke="none" stroke-width="1" fill="none" fill-rule="evenodd">
        <g id="UI-Kit" transform="translate(-655.000000, -3001.000000)" fill="#5579EE">
            <g id="Icons-/-Sign-/-Virgo" transform="translate(655.000000, 3001.000000)">
                <path d="M16.646,2.9237 C8.693,2.9237 2.222,9.3947 2.222,17.3477 C2.222,25.3007 8.693,31.7707 16.646,31.7707 C24.599,31.7707 31.07,25.3007 31.07,17.3477 C31.07,9.3947 24.599,2.9237 16.646,2.9237 M16.646,33.7707 C7.59,33.7707 0.222,26.4027 0.222,17.3477 C0.222,8.2917 7.59,0.9237 16.646,0.9237 C25.702,0.9237 33.07,8.2917 33.07,17.3477 C33.07,26.4027 25.702,33.7707 16.646,33.7707" id="Fill-39"></path>
                <path d="M11.6586788,23.8305688 L11.6398803,23.8305688 C11.1457489,23.8199199 10.7536663,23.4152613 10.7635132,22.9245241 L10.9873046,12.2019595 C10.9926756,12.0413385 10.9846191,11.2524318 10.3982856,10.7430589 C10.1109374,10.4954718 9.78599224,10.3969694 9.56399116,10.3579234 C9.07702104,10.2736195 8.7520759,9.81305416 8.83711664,9.33030359 C8.92305254,8.84755302 9.38674836,8.5245361 9.87371848,8.61061478 C10.5146571,8.72242833 11.1027809,8.99752516 11.5763236,9.40750818 C12.7382486,10.4147175 12.7892731,11.8345722 12.7776359,12.2454426 L12.5538445,22.9617953 C12.5431025,23.4454333 12.1447538,23.8305688 11.6586788,23.8305688" id="Fill-41"></path>
                <path d="M16.0969102,23.9783224 C15.6018836,23.9783224 15.2017445,23.5807631 15.2017445,23.0909133 L15.2017445,11.7649105 C15.0764213,11.2715111 14.7622182,10.8748392 14.4184746,10.7869857 C14.1911025,10.7301915 13.8921172,10.7949724 13.6217771,10.9635801 C13.2207429,11.2164917 12.9342899,11.6539844 12.8358217,12.1642447 C12.7445148,12.644333 12.2736576,12.9602506 11.789373,12.8697349 C11.3041932,12.7783318 10.9846191,12.3133294 11.0777163,11.8323536 C11.2665963,10.842005 11.8457684,9.97944337 12.6639499,9.46474607 C13.3532274,9.03080301 14.156191,8.88526791 14.8660574,9.0689616 C15.8954979,9.33252211 16.7235261,10.2811625 16.9732774,11.4862641 C16.9858097,11.5457205 16.9920758,11.6051769 16.9920758,11.6655207 L16.9920758,23.0909133 C16.9920758,23.5807631 16.5919368,23.9783224 16.0969102,23.9783224" id="Fill-43"></path>
                <path d="M21.7659943,27.6766 C21.6728971,27.6766 21.5789047,27.661514 21.4858075,27.6313421 C21.029273,27.4822574 20.3722214,27.1627901 19.8342268,26.490134 C19.2416272,25.74826 19.1082475,24.9584658 19.0822877,24.5529199 L19.0061986,11.7263082 C18.9426418,11.3056763 18.6740921,10.9498253 18.3428808,10.8530977 C17.9042497,10.7244233 17.2713675,11.0332417 17.0601084,11.680163 C16.9079303,12.1460528 16.4057423,12.4034014 15.9321997,12.250767 C15.4622377,12.0999075 15.2053252,11.5994087 15.3575033,11.1335189 C15.8507396,9.62137378 17.419965,8.73130242 18.8495446,9.15104694 C19.8915174,9.45631569 20.6533034,10.4031812 20.7902638,11.5621376 C20.7938444,11.5949717 20.7965299,11.6278058 20.7965299,11.66064 L20.8708287,24.4908012 C20.8824658,24.6372237 20.9469178,25.0241341 21.2369514,25.3870844 C21.5144528,25.7340614 21.8626722,25.8858084 22.0461812,25.9461522 C22.5161432,26.099674 22.7712654,26.6019475 22.6155066,27.0669499 C22.4919737,27.4396618 22.1419639,27.6766 21.7659943,27.6766" id="Fill-45"></path>
                <path d="M16.6555831,26.6037224 C16.2267987,26.6037224 15.8472485,26.2966788 15.7738449,25.8636231 C15.6914897,25.3799852 16.0209106,24.9220821 16.5078807,24.8413278 C17.4782403,24.6798194 18.924828,24.253863 20.3069638,23.1419393 C21.6407607,22.0681743 22.3604739,20.8053911 22.7373386,19.8869226 L22.7731452,14.8029557 C22.7650887,14.3663504 22.4661034,13.9519304 22.0793918,13.8596398 C21.8708182,13.8081701 21.6282283,13.8552028 21.4160741,13.9847645 C21.1663229,14.1391737 20.9908704,14.3832112 20.923733,14.6751688 C20.8127324,15.1525949 20.3356091,15.4507644 19.8495342,15.3407256 C19.367935,15.2306869 19.0671594,14.7541482 19.1781599,14.2767221 C19.3545076,13.5206495 19.8137275,12.8808275 20.4743598,12.476169 C21.0893386,12.0990201 21.8278503,11.9738954 22.4974342,12.133629 C23.69069,12.4193748 24.5410974,13.5126628 24.5634766,14.7931942 L24.5267748,20.0652919 C24.5258796,20.171781 24.506186,20.2773827 24.4676938,20.3767725 C24.0299578,21.5064443 23.1491148,23.1419393 21.4348726,24.5200857 C19.7501708,25.8751595 17.9866944,26.3942938 16.8050757,26.5912986 C16.7540513,26.6001727 16.7048172,26.6037224 16.6555831,26.6037224" id="Fill-47"></path>
            </g>
        </g>
    </g>
</svg>
